<svg width="16" height="16" viewBox="0 0 16 16" fill="none" xmlns="http://www.w3.org/2000/svg">
<path fill-rule="evenodd" clip-rule="evenodd" d="M6.15686 0.176475C5.78961 0.0245086 5.37706 0.0245083 5.00981 0.176475L0.926472 1.86613C0.365696 2.09818 0 2.64527 0 3.25216V14.1288C0 15.1976 1.08594 15.9235 2.07353 15.5148L5.58333 14.0625L9.84314 15.8252C10.2104 15.9771 10.6229 15.9771 10.9902 15.8252L15.0735 14.1355C15.6343 13.9035 16 13.3564 16 12.7495V1.87284C16 0.804055 14.9141 0.0781643 13.9265 0.486819L10.4167 1.93915L6.15686 0.176475ZM5.58008 3.00085C5.99429 3.00085 6.33008 3.33664 6.33008 3.75085V10.2509C6.33008 10.6651 5.99429 11.0009 5.58008 11.0009C5.16586 11.0009 4.83008 10.6651 4.83008 10.2509V3.75085C4.83008 3.33664 5.16586 3.00085 5.58008 3.00085ZM11.1699 5.75085C11.1699 5.33664 10.8341 5.00085 10.4199 5.00085C10.0057 5.00085 9.66992 5.33664 9.66992 5.75085V12.2509C9.66992 12.6651 10.0057 13.0009 10.4199 13.0009C10.8341 13.0009 11.1699 12.6651 11.1699 12.2509V5.75085Z" fill="#333333"/>
</svg>
