<svg width="64" height="64" viewBox="0 0 64 64" fill="none" xmlns="http://www.w3.org/2000/svg">
<path opacity="0.3" d="M32 58.6668C46.7276 58.6668 58.6667 46.7278 58.6667 32.0002C58.6667 17.2726 46.7276 5.3335 32 5.3335C17.2724 5.3335 5.33337 17.2726 5.33337 32.0002C5.33337 46.7278 17.2724 58.6668 32 58.6668Z" fill="white"/>
<path d="M41.4134 29.2533L33.4134 21.2533C32.64 20.48 31.36 20.48 30.5867 21.2533L22.5867 29.2533C21.8134 30.0267 21.8134 31.3067 22.5867 32.08C23.36 32.8533 24.64 32.8533 25.4134 32.08L30 27.4933V41.3333C30 42.4267 30.9067 43.3333 32 43.3333C33.0934 43.3333 34 42.4267 34 41.3333V27.4933L38.5867 32.08C38.9867 32.48 39.4934 32.6667 40 32.6667C40.5067 32.6667 41.0134 32.48 41.4134 32.08C42.1867 31.3067 42.1867 30.0267 41.4134 29.2533Z" fill="white"/>
</svg>
