<svg width="40" height="40" viewBox="0 0 40 40" fill="none" xmlns="http://www.w3.org/2000/svg">
<path fill-rule="evenodd" clip-rule="evenodd" d="M11.25 0.750001L37.5 0.75C37.9641 0.75 38.4092 0.934374 38.7374 1.26256C39.0656 1.59075 39.25 2.03587 39.25 2.5V28.75C39.25 29.7165 38.4665 30.5 37.5 30.5C36.5335 30.5 35.75 29.7165 35.75 28.75V6.72488L3.73744 38.7374C3.05402 39.4209 1.94598 39.4209 1.26256 38.7374C0.579146 38.054 0.579146 36.946 1.26256 36.2626L33.2751 4.25L11.25 4.25C10.2835 4.25 9.5 3.4665 9.5 2.5C9.5 1.5335 10.2835 0.750001 11.25 0.750001Z" fill="white"/>
</svg>
