<svg width="48" height="48" viewBox="0 0 48 48" fill="none" xmlns="http://www.w3.org/2000/svg">
<path d="M6.34003 14.8789L24 25.0989L41.54 14.9388" stroke="#292D32" stroke-width="2" stroke-linecap="round" stroke-linejoin="round"/>
<path d="M24 43.2181V25.0781" stroke="#292D32" stroke-width="2" stroke-linecap="round" stroke-linejoin="round"/>
<path d="M43.22 25.6601V18.34C43.22 15.58 41.24 12.22 38.82 10.88L28.14 4.96C25.86 3.68 22.14 3.68 19.86 4.96L9.17999 10.88C6.75999 12.22 4.78003 15.58 4.78003 18.34V29.6601C4.78003 32.4201 6.75999 35.78 9.17999 37.12L19.86 43.0401C21 43.6801 22.5 44 24 44C25.5 44 27 43.6801 28.14 43.0401" stroke="#292D32" stroke-width="2" stroke-linecap="round" stroke-linejoin="round"/>
<path d="M38.4 42.8C41.9346 42.8 44.8 39.9346 44.8 36.4C44.8 32.8654 41.9346 30 38.4 30C34.8654 30 32 32.8654 32 36.4C32 39.9346 34.8654 42.8 38.4 42.8Z" stroke="#292D32" stroke-width="2" stroke-linecap="round" stroke-linejoin="round"/>
<path d="M46 44L44 42" stroke="#292D32" stroke-width="2" stroke-linecap="round" stroke-linejoin="round"/>
</svg>
