<svg width="155" height="155" viewBox="0 0 155 155" fill="none" xmlns="http://www.w3.org/2000/svg">
<path d="M152.886 142.67L143.023 142.67C142.828 142.67 142.67 142.828 142.67 143.022L142.67 152.886C142.67 153.081 142.828 153.238 143.023 153.238L152.886 153.238C153.081 153.238 153.239 153.081 153.239 152.886L153.239 143.022C153.239 142.828 153.081 142.67 152.886 142.67Z" stroke="white" stroke-width="1.32102" stroke-linecap="round" stroke-linejoin="round"/>
<path d="M152.886 114.488L143.023 114.488C142.828 114.488 142.67 114.646 142.67 114.841L142.67 124.704C142.67 124.899 142.828 125.057 143.023 125.057L152.886 125.057C153.081 125.057 153.239 124.899 153.239 124.704L153.239 114.841C153.239 114.646 153.081 114.488 152.886 114.488Z" stroke="white" stroke-width="1.32102" stroke-linecap="round" stroke-linejoin="round"/>
<path d="M152.886 86.3068L143.023 86.3068C142.828 86.3068 142.67 86.4645 142.67 86.6591L142.67 96.5227C142.67 96.7173 142.828 96.875 143.023 96.875L152.886 96.875C153.081 96.875 153.239 96.7173 153.239 96.5227L153.239 86.6591C153.239 86.4645 153.081 86.3068 152.886 86.3068Z" stroke="white" stroke-width="1.32102" stroke-linecap="round" stroke-linejoin="round"/>
<path d="M152.886 58.1252L143.023 58.1252C142.828 58.1252 142.67 58.2829 142.67 58.4775L142.67 68.3411C142.67 68.5356 142.828 68.6934 143.023 68.6934L152.886 68.6934C153.081 68.6934 153.239 68.5356 153.239 68.3411L153.239 58.4774C153.239 58.2829 153.081 58.1252 152.886 58.1252Z" stroke="white" stroke-width="1.32102" stroke-linecap="round" stroke-linejoin="round"/>
<path d="M152.886 29.9435L143.023 29.9435C142.828 29.9435 142.67 30.1012 142.67 30.2958L142.67 40.1594C142.67 40.354 142.828 40.5117 143.023 40.5117L152.886 40.5117C153.081 40.5117 153.239 40.354 153.239 40.1594L153.239 30.2958C153.239 30.1012 153.081 29.9435 152.886 29.9435Z" stroke="white" stroke-width="1.32102" stroke-linecap="round" stroke-linejoin="round"/>
<path d="M152.886 1.7619L143.023 1.7619C142.828 1.7619 142.67 1.9196 142.67 2.11417L142.67 11.9778C142.67 12.1724 142.828 12.3301 143.023 12.3301L152.886 12.3301C153.081 12.3301 153.239 12.1724 153.239 11.9778L153.239 2.11417C153.239 1.9196 153.081 1.7619 152.886 1.7619Z" stroke="white" stroke-width="1.32102" stroke-linecap="round" stroke-linejoin="round"/>
<path d="M124.704 142.67L114.841 142.67C114.646 142.67 114.489 142.828 114.489 143.022L114.489 152.886C114.489 153.081 114.646 153.238 114.841 153.238L124.704 153.238C124.899 153.238 125.057 153.081 125.057 152.886L125.057 143.022C125.057 142.828 124.899 142.67 124.704 142.67Z" stroke="white" stroke-width="1.32102" stroke-linecap="round" stroke-linejoin="round"/>
<path d="M124.704 114.488L114.841 114.488C114.646 114.488 114.489 114.646 114.489 114.841L114.489 124.704C114.489 124.899 114.646 125.057 114.841 125.057L124.704 125.057C124.899 125.057 125.057 124.899 125.057 124.704L125.057 114.841C125.057 114.646 124.899 114.488 124.704 114.488Z" stroke="white" stroke-width="1.32102" stroke-linecap="round" stroke-linejoin="round"/>
<path d="M124.704 86.3068L114.841 86.3068C114.646 86.3068 114.489 86.4645 114.489 86.6591L114.489 96.5227C114.489 96.7173 114.646 96.875 114.841 96.875L124.704 96.875C124.899 96.875 125.057 96.7173 125.057 96.5227L125.057 86.6591C125.057 86.4645 124.899 86.3068 124.704 86.3068Z" stroke="white" stroke-width="1.32102" stroke-linecap="round" stroke-linejoin="round"/>
<path d="M124.704 58.1252L114.841 58.1252C114.646 58.1252 114.489 58.2829 114.489 58.4775L114.489 68.3411C114.489 68.5356 114.646 68.6934 114.841 68.6934L124.704 68.6934C124.899 68.6934 125.057 68.5356 125.057 68.3411L125.057 58.4774C125.057 58.2829 124.899 58.1252 124.704 58.1252Z" stroke="white" stroke-width="1.32102" stroke-linecap="round" stroke-linejoin="round"/>
<path d="M124.704 29.9435L114.841 29.9435C114.646 29.9435 114.489 30.1012 114.489 30.2958L114.489 40.1594C114.489 40.354 114.646 40.5117 114.841 40.5117L124.704 40.5117C124.899 40.5117 125.057 40.354 125.057 40.1594L125.057 30.2958C125.057 30.1012 124.899 29.9435 124.704 29.9435Z" stroke="white" stroke-width="1.32102" stroke-linecap="round" stroke-linejoin="round"/>
<path d="M124.704 1.7619L114.841 1.7619C114.646 1.7619 114.489 1.9196 114.489 2.11417L114.489 11.9778C114.489 12.1724 114.646 12.3301 114.841 12.3301L124.704 12.3301C124.899 12.3301 125.057 12.1724 125.057 11.9778L125.057 2.11417C125.057 1.9196 124.899 1.7619 124.704 1.7619Z" stroke="white" stroke-width="1.32102" stroke-linecap="round" stroke-linejoin="round"/>
<path d="M96.5227 142.67L86.6591 142.67C86.4645 142.67 86.3068 142.828 86.3068 143.022L86.3068 152.886C86.3068 153.081 86.4645 153.238 86.6591 153.238L96.5227 153.238C96.7173 153.238 96.875 153.081 96.875 152.886L96.875 143.022C96.875 142.828 96.7173 142.67 96.5227 142.67Z" stroke="white" stroke-width="1.32102" stroke-linecap="round" stroke-linejoin="round"/>
<path d="M96.5227 114.488L86.6591 114.488C86.4645 114.488 86.3068 114.646 86.3068 114.841L86.3068 124.704C86.3068 124.899 86.4645 125.057 86.6591 125.057L96.5227 125.057C96.7173 125.057 96.875 124.899 96.875 124.704L96.875 114.841C96.875 114.646 96.7173 114.488 96.5227 114.488Z" stroke="white" stroke-width="1.32102" stroke-linecap="round" stroke-linejoin="round"/>
<path d="M96.5227 86.3068L86.6591 86.3068C86.4645 86.3068 86.3068 86.4645 86.3068 86.6591L86.3068 96.5227C86.3068 96.7173 86.4645 96.875 86.6591 96.875L96.5227 96.875C96.7173 96.875 96.875 96.7173 96.875 96.5227L96.875 86.6591C96.875 86.4645 96.7173 86.3068 96.5227 86.3068Z" stroke="white" stroke-width="1.32102" stroke-linecap="round" stroke-linejoin="round"/>
<path d="M96.5227 58.1252L86.6591 58.1252C86.4645 58.1252 86.3068 58.2829 86.3068 58.4775L86.3068 68.3411C86.3068 68.5356 86.4645 68.6934 86.6591 68.6934L96.5227 68.6934C96.7173 68.6934 96.875 68.5356 96.875 68.3411L96.875 58.4774C96.875 58.2829 96.7173 58.1252 96.5227 58.1252Z" stroke="white" stroke-width="1.32102" stroke-linecap="round" stroke-linejoin="round"/>
<path d="M96.5227 29.9435L86.6591 29.9435C86.4645 29.9435 86.3068 30.1012 86.3068 30.2958L86.3068 40.1594C86.3068 40.354 86.4645 40.5117 86.6591 40.5117L96.5227 40.5117C96.7173 40.5117 96.875 40.354 96.875 40.1594L96.875 30.2958C96.875 30.1012 96.7173 29.9435 96.5227 29.9435Z" stroke="white" stroke-width="1.32102" stroke-linecap="round" stroke-linejoin="round"/>
<path d="M96.5227 1.7619L86.6591 1.7619C86.4645 1.7619 86.3068 1.9196 86.3068 2.11417L86.3068 11.9778C86.3068 12.1724 86.4645 12.3301 86.6591 12.3301L96.5227 12.3301C96.7173 12.3301 96.875 12.1724 96.875 11.9778L96.875 2.11417C96.875 1.9196 96.7173 1.7619 96.5227 1.7619Z" stroke="white" stroke-width="1.32102" stroke-linecap="round" stroke-linejoin="round"/>
<path d="M68.3408 142.67L58.4772 142.67C58.2826 142.67 58.1249 142.828 58.1249 143.022L58.1249 152.886C58.1249 153.081 58.2826 153.238 58.4772 153.238L68.3408 153.238C68.5354 153.238 68.6931 153.081 68.6931 152.886L68.6931 143.022C68.6931 142.828 68.5354 142.67 68.3408 142.67Z" stroke="white" stroke-width="1.32102" stroke-linecap="round" stroke-linejoin="round"/>
<path d="M68.3408 114.488L58.4771 114.488C58.2826 114.488 58.1249 114.646 58.1249 114.841L58.1249 124.704C58.1249 124.899 58.2826 125.057 58.4771 125.057L68.3408 125.057C68.5353 125.057 68.6931 124.899 68.6931 124.704L68.6931 114.841C68.6931 114.646 68.5353 114.488 68.3408 114.488Z" stroke="white" stroke-width="1.32102" stroke-linecap="round" stroke-linejoin="round"/>
<path d="M68.3408 86.3068L58.4771 86.3068C58.2826 86.3068 58.1249 86.4645 58.1249 86.6591L58.1249 96.5227C58.1249 96.7173 58.2826 96.875 58.4771 96.875L68.3408 96.875C68.5353 96.875 68.6931 96.7173 68.6931 96.5227L68.6931 86.6591C68.6931 86.4645 68.5353 86.3068 68.3408 86.3068Z" stroke="white" stroke-width="1.32102" stroke-linecap="round" stroke-linejoin="round"/>
<path d="M68.3408 58.1252L58.4771 58.1252C58.2826 58.1252 58.1249 58.2829 58.1249 58.4775L58.1249 68.3411C58.1249 68.5356 58.2826 68.6934 58.4771 68.6934L68.3408 68.6934C68.5353 68.6934 68.6931 68.5356 68.6931 68.3411L68.6931 58.4774C68.6931 58.2829 68.5353 58.1252 68.3408 58.1252Z" stroke="white" stroke-width="1.32102" stroke-linecap="round" stroke-linejoin="round"/>
<path d="M68.3408 29.9435L58.4771 29.9435C58.2826 29.9435 58.1249 30.1012 58.1249 30.2958L58.1249 40.1594C58.1249 40.354 58.2826 40.5117 58.4771 40.5117L68.3408 40.5117C68.5353 40.5117 68.6931 40.354 68.6931 40.1594L68.6931 30.2958C68.6931 30.1012 68.5353 29.9435 68.3408 29.9435Z" stroke="white" stroke-width="1.32102" stroke-linecap="round" stroke-linejoin="round"/>
<path d="M68.3408 1.7619L58.4771 1.7619C58.2826 1.7619 58.1249 1.9196 58.1249 2.11417L58.1249 11.9778C58.1249 12.1724 58.2826 12.3301 58.4771 12.3301L68.3408 12.3301C68.5353 12.3301 68.6931 12.1724 68.6931 11.9778L68.6931 2.11417C68.6931 1.9196 68.5353 1.7619 68.3408 1.7619Z" stroke="white" stroke-width="1.32102" stroke-linecap="round" stroke-linejoin="round"/>
<path d="M40.1591 142.67L30.2954 142.67C30.1009 142.67 29.9432 142.828 29.9432 143.022L29.9432 152.886C29.9432 153.081 30.1009 153.238 30.2954 153.238L40.1591 153.238C40.3536 153.238 40.5114 153.081 40.5114 152.886L40.5114 143.022C40.5114 142.828 40.3536 142.67 40.1591 142.67Z" stroke="white" stroke-width="1.32102" stroke-linecap="round" stroke-linejoin="round"/>
<path d="M40.1591 114.488L30.2954 114.488C30.1009 114.488 29.9432 114.646 29.9432 114.841L29.9432 124.704C29.9432 124.899 30.1009 125.057 30.2954 125.057L40.1591 125.057C40.3536 125.057 40.5114 124.899 40.5114 124.704L40.5114 114.841C40.5114 114.646 40.3536 114.488 40.1591 114.488Z" stroke="white" stroke-width="1.32102" stroke-linecap="round" stroke-linejoin="round"/>
<path d="M40.1591 86.3068L30.2954 86.3068C30.1009 86.3068 29.9432 86.4645 29.9432 86.6591L29.9432 96.5227C29.9432 96.7173 30.1009 96.875 30.2954 96.875L40.1591 96.875C40.3536 96.875 40.5114 96.7173 40.5114 96.5227L40.5114 86.6591C40.5114 86.4645 40.3536 86.3068 40.1591 86.3068Z" stroke="white" stroke-width="1.32102" stroke-linecap="round" stroke-linejoin="round"/>
<path d="M40.1591 58.1252L30.2954 58.1252C30.1009 58.1252 29.9432 58.2829 29.9432 58.4775L29.9432 68.3411C29.9432 68.5356 30.1009 68.6934 30.2954 68.6934L40.1591 68.6934C40.3536 68.6934 40.5114 68.5356 40.5114 68.3411L40.5114 58.4774C40.5114 58.2829 40.3536 58.1252 40.1591 58.1252Z" stroke="white" stroke-width="1.32102" stroke-linecap="round" stroke-linejoin="round"/>
<path d="M40.1591 29.9435L30.2954 29.9435C30.1009 29.9435 29.9432 30.1012 29.9432 30.2958L29.9432 40.1594C29.9432 40.354 30.1009 40.5117 30.2954 40.5117L40.1591 40.5117C40.3536 40.5117 40.5114 40.354 40.5114 40.1594L40.5114 30.2958C40.5114 30.1012 40.3536 29.9435 40.1591 29.9435Z" stroke="white" stroke-width="1.32102" stroke-linecap="round" stroke-linejoin="round"/>
<path d="M40.1591 1.7619L30.2954 1.7619C30.1009 1.7619 29.9432 1.9196 29.9432 2.11417L29.9432 11.9778C29.9432 12.1724 30.1009 12.3301 30.2954 12.3301L40.1591 12.3301C40.3536 12.3301 40.5114 12.1724 40.5114 11.9778L40.5114 2.11417C40.5114 1.9196 40.3536 1.7619 40.1591 1.7619Z" stroke="white" stroke-width="1.32102" stroke-linecap="round" stroke-linejoin="round"/>
<path d="M11.9772 142.67L2.11356 142.67C1.91899 142.67 1.76128 142.828 1.76128 143.022L1.76129 152.886C1.76129 153.081 1.91899 153.238 2.11356 153.238L11.9772 153.238C12.1717 153.238 12.3295 153.081 12.3295 152.886L12.3295 143.022C12.3295 142.828 12.1717 142.67 11.9772 142.67Z" stroke="white" stroke-width="1.32102" stroke-linecap="round" stroke-linejoin="round"/>
<path d="M11.9771 114.488L2.1135 114.488C1.91892 114.488 1.76122 114.646 1.76122 114.841L1.76122 124.704C1.76122 124.899 1.91893 125.057 2.1135 125.057L11.9771 125.057C12.1717 125.057 12.3294 124.899 12.3294 124.704L12.3294 114.841C12.3294 114.646 12.1717 114.488 11.9771 114.488Z" stroke="white" stroke-width="1.32102" stroke-linecap="round" stroke-linejoin="round"/>
<path d="M11.9771 86.3068L2.1135 86.3068C1.91892 86.3068 1.76122 86.4645 1.76122 86.6591L1.76122 96.5227C1.76122 96.7173 1.91893 96.875 2.1135 96.875L11.9771 96.875C12.1717 96.875 12.3294 96.7173 12.3294 96.5227L12.3294 86.6591C12.3294 86.4645 12.1717 86.3068 11.9771 86.3068Z" stroke="white" stroke-width="1.32102" stroke-linecap="round" stroke-linejoin="round"/>
<path d="M11.9771 58.1252L2.1135 58.1252C1.91892 58.1252 1.76122 58.2829 1.76122 58.4775L1.76122 68.3411C1.76122 68.5356 1.91893 68.6934 2.1135 68.6934L11.9771 68.6934C12.1717 68.6934 12.3294 68.5356 12.3294 68.3411L12.3294 58.4774C12.3294 58.2829 12.1717 58.1252 11.9771 58.1252Z" stroke="white" stroke-width="1.32102" stroke-linecap="round" stroke-linejoin="round"/>
<path d="M11.9771 29.9435L2.1135 29.9435C1.91892 29.9435 1.76122 30.1012 1.76122 30.2958L1.76122 40.1594C1.76122 40.354 1.91893 40.5117 2.1135 40.5117L11.9771 40.5117C12.1717 40.5117 12.3294 40.354 12.3294 40.1594L12.3294 30.2958C12.3294 30.1012 12.1717 29.9435 11.9771 29.9435Z" stroke="white" stroke-width="1.32102" stroke-linecap="round" stroke-linejoin="round"/>
<path d="M11.9771 1.7619L2.1135 1.7619C1.91892 1.7619 1.76122 1.9196 1.76122 2.11417L1.76122 11.9778C1.76122 12.1724 1.91893 12.3301 2.1135 12.3301L11.9771 12.3301C12.1717 12.3301 12.3294 12.1724 12.3294 11.9778L12.3294 2.11417C12.3294 1.9196 12.1717 1.7619 11.9771 1.7619Z" stroke="white" stroke-width="1.32102" stroke-linecap="round" stroke-linejoin="round"/>
</svg>
