<svg width="49" height="48" viewBox="0 0 49 48" fill="none" xmlns="http://www.w3.org/2000/svg">
<g clip-path="url(#clip0_1142_5982)">
<path d="M8.14406 35.682C8.45971 35.9946 8.70159 36.372 8.85245 36.7874C9.00331 37.2027 9.05945 37.6458 9.01685 38.085C8.80312 40.1177 8.39792 42.1264 7.80649 44.085C12.0488 43.116 14.6398 41.994 15.8167 41.406C16.4843 41.0725 17.253 40.9934 17.9759 41.184C20.0482 41.729 22.1841 42.0033 24.3288 42C36.481 42 45.6164 33.579 45.6164 24C45.6164 14.424 36.481 6 24.3288 6C12.1765 6 3.0411 14.424 3.0411 24C3.0411 28.404 4.91745 32.49 8.14406 35.682ZM6.64479 47.397C5.92426 47.5379 5.2014 47.6669 4.47649 47.784C3.86827 47.88 3.40603 47.256 3.64627 46.698C3.9163 46.0698 4.16379 45.4324 4.3883 44.787L4.39742 44.757C5.15162 42.597 5.76592 40.113 5.99096 37.8C2.25953 34.11 0 29.28 0 24C0 12.402 10.8932 3 24.3288 3C37.7643 3 48.6575 12.402 48.6575 24C48.6575 35.598 37.7643 45 24.3288 45C21.9192 45.0032 19.5195 44.6946 17.1913 44.082C15.6099 44.871 12.207 46.308 6.64479 47.397Z" fill="white"/>
<path d="M21.4884 20.2804C20.896 19.3704 20.0202 18.6746 18.9926 18.2976C17.965 17.9206 16.8411 17.8829 15.7899 18.19C14.7387 18.4971 13.8169 19.1325 13.1631 20.0007C12.5094 20.8689 12.1589 21.9229 12.1644 23.0044C12.1649 23.9 12.4093 24.7791 12.8719 25.5497C13.3345 26.3203 13.9984 26.9542 14.7942 27.3852C15.59 27.8162 16.4886 28.0285 17.396 27.9999C18.3034 27.9712 19.1863 27.7027 19.9526 27.2224C19.5542 28.3894 18.8122 29.6344 17.5897 30.8824C17.3558 31.1211 17.2276 31.4417 17.2333 31.7736C17.2361 31.938 17.2717 32.1002 17.3381 32.251C17.4045 32.4018 17.5003 32.5382 17.6201 32.6524C17.7399 32.7667 17.8814 32.8565 18.0364 32.9169C18.1914 32.9772 18.3569 33.0068 18.5235 33.004C18.86 32.9984 19.1804 32.8611 19.4143 32.6224C23.9334 28.0024 23.3465 22.9804 21.4884 20.2864V20.2804ZM33.6528 20.2804C33.0604 19.3704 32.1846 18.6746 31.157 18.2976C30.1294 17.9206 29.0055 17.8829 27.9543 18.19C26.9031 18.4971 25.9813 19.1325 25.3275 20.0007C24.6737 20.8689 24.3233 21.9229 24.3288 23.0044C24.3293 23.9 24.5736 24.7791 25.0362 25.5497C25.4988 26.3203 26.1627 26.9542 26.9586 27.3852C27.7544 27.8162 28.6529 28.0285 29.5604 27.9999C30.4678 27.9712 31.3507 27.7027 32.117 27.2224C31.7186 28.3894 30.9766 29.6344 29.7541 30.8824C29.6383 31.0006 29.5472 31.1402 29.486 31.2931C29.4249 31.446 29.3948 31.6093 29.3977 31.7736C29.4005 31.938 29.4361 32.1002 29.5025 32.251C29.5688 32.4018 29.6647 32.5382 29.7845 32.6524C29.9043 32.7667 30.0457 32.8565 30.2007 32.9169C30.3558 32.9772 30.5213 33.0068 30.6879 33.004C30.8545 33.0012 31.0189 32.9661 31.1718 32.9006C31.3246 32.8352 31.4629 32.7406 31.5787 32.6224C36.0978 28.0024 35.5109 22.9804 33.6528 20.2864V20.2804Z" fill="white"/>
</g>
<defs>
<clipPath id="clip0_1142_5982">
<rect width="48.6575" height="48" fill="white"/>
</clipPath>
</defs>
</svg>
