<svg width="150" height="34" viewBox="0 0 150 34" fill="none" xmlns="http://www.w3.org/2000/svg">
<g clip-path="url(#clip0_13593_42989)">
<path d="M0.0349121 0.457031H149.965V33.5452H0.0349121V0.457031Z" fill="#FECC00"/>
<path d="M48.3756 14.2819C47.7205 15.1691 46.6242 16.7115 45.9569 17.6124C45.6183 18.0705 45.0065 18.9023 47.0345 18.9023H57.7109C57.7109 18.9023 59.4315 16.5614 60.8742 14.6035C62.8363 11.9402 61.044 6.39844 54.029 6.39844H26.4024L21.6123 12.9067H47.7194C49.0374 12.9067 49.0198 13.4083 48.3756 14.2819ZM40.5323 20.5078C38.5043 20.5078 39.1161 19.6743 39.4547 19.2162C40.122 18.3153 41.2359 16.7891 41.8911 15.9019C42.5363 15.0284 42.5532 14.5267 41.2334 14.5267H29.2935L19.6732 27.6013H43.1341C50.883 27.6013 55.197 22.3309 56.5268 20.5087C56.5268 20.5078 42.6767 20.5078 40.5323 20.5078ZM55.794 27.6013H69.5573L74.7745 20.5069L61.0135 20.5087C61.0091 20.5078 55.794 27.6013 55.794 27.6013ZM91.3043 6.39844L86.0253 13.5687H79.883L85.1595 6.39844H71.4007L62.1959 18.9023H95.8587L105.061 6.39844H91.3043ZM75.6995 27.6013H89.4573L94.6775 20.5087H80.9194C80.9142 20.5078 75.6995 27.6013 75.6995 27.6013ZM0.0349121 23.3059V24.8125H19.2023L20.3096 23.3059H0.0349121ZM22.3698 20.5078H0.0349121V22.0127H21.2599L22.3698 20.5078ZM0.0349121 27.6013H17.1489L18.251 26.1033H0.0349121V27.6013ZM129.767 24.8117H149.965V23.3051H130.876L129.767 24.8117ZM127.715 27.6013H149.965V26.1033H128.816L127.715 27.6013ZM132.933 20.5078L131.826 22.0144H149.965V20.5078H132.933ZM114.912 18.9023L124.116 6.39844H109.544C109.539 6.39844 100.333 18.9023 100.333 18.9023H114.912ZM99.1536 20.5078C99.1536 20.5078 98.1477 21.8821 97.6587 22.5441C95.9315 24.8782 97.4591 27.6013 103.098 27.6013H125.194L130.414 20.5087L99.1536 20.5078Z" fill="#D50029"/>
</g>
<defs>
<clipPath id="clip0_13593_42989">
<rect width="150" height="33.0882" fill="white" transform="translate(0 0.457031)"/>
</clipPath>
</defs>
</svg>
