<svg width="10" height="20" viewBox="0 0 10 20" fill="none" xmlns="http://www.w3.org/2000/svg">
<path fill-rule="evenodd" clip-rule="evenodd" d="M2.2014 10.0762V19.7388C2.2014 19.8694 2.3185 20 2.48244 20H6.3466C6.48712 20 6.62763 19.8912 6.62763 19.7388V9.90207H9.41452C9.55503 9.90207 9.67213 9.79325 9.69555 9.66268L9.92974 6.7247C9.95316 6.57236 9.81265 6.44178 9.64871 6.44178H6.60422V4.35256C6.60422 3.85201 7.02576 3.46028 7.5644 3.46028H9.71897C9.85948 3.46028 10 3.35147 10 3.19913V0.261153C10 0.130576 9.8829 0 9.71897 0H6.06557C3.93443 0 2.2014 1.61045 2.2014 3.59086V6.44178H0.281031C0.140515 6.44178 0 6.5506 0 6.70294V9.66268C0 9.79325 0.117096 9.92383 0.281031 9.92383H2.2014V10.0762Z" fill="#F2F2F2"/>
</svg>
