<svg width="30" height="30" viewBox="0 0 30 30" fill="none" xmlns="http://www.w3.org/2000/svg">
<path d="M1.11981 13.1172C1.11981 8.91679 1.11981 6.8166 1.93726 5.21226C2.65631 3.80104 3.80367 2.65369 5.21488 1.93464C6.81922 1.11719 8.91942 1.11719 13.1198 1.11719H16.9032C21.1035 1.11719 23.2037 1.11719 24.8081 1.93464C26.2193 2.65369 27.3666 3.80104 28.0857 5.21226C28.9031 6.8166 28.9031 8.91679 28.9031 13.1172V16.9005C28.9031 21.1009 28.9031 23.2011 28.0857 24.8055C27.3666 26.2167 26.2193 27.364 24.8081 28.0831C23.2037 28.9005 21.1035 28.9005 16.9031 28.9005H13.1198C8.91942 28.9005 6.81922 28.9005 5.21488 28.0831C3.80367 27.364 2.65631 26.2167 1.93726 24.8055C1.11981 23.2011 1.11981 21.1009 1.11981 16.9005V13.1172Z" fill="#102E1A"/>
<path d="M15.0009 5.27734C12.3605 5.27734 12.0291 5.28889 10.9921 5.33608C9.95705 5.38348 9.25056 5.54734 8.63238 5.78776C7.99293 6.03608 7.45051 6.36826 6.91011 6.90885C6.3693 7.44925 6.03713 7.99167 5.78799 8.6309C5.54696 9.24928 5.38289 9.95596 5.33631 10.9906C5.28992 12.0276 5.27777 12.3592 5.27777 14.9996C5.27777 17.64 5.28952 17.9703 5.33651 19.0074C5.38411 20.0424 5.54797 20.7488 5.78819 21.367C6.03672 22.0065 6.3689 22.5489 6.9095 23.0893C7.4497 23.6301 7.99212 23.9631 8.63116 24.2114C9.24975 24.4518 9.95644 24.6157 10.9913 24.6631C12.0283 24.7102 12.3595 24.7218 14.9997 24.7218C17.6403 24.7218 17.9707 24.7102 19.0077 24.6631C20.0427 24.6157 20.75 24.4518 21.3686 24.2114C22.0079 23.9631 22.5495 23.6301 23.0897 23.0893C23.6305 22.5489 23.9627 22.0065 24.2118 21.3672C24.4508 20.7488 24.6149 20.0422 24.6635 19.0076C24.7101 17.9705 24.7222 17.64 24.7222 14.9996C24.7222 12.3592 24.7101 12.0278 24.6635 10.9908C24.6149 9.95576 24.4508 9.24928 24.2118 8.63111C23.9627 7.99167 23.6305 7.44925 23.0897 6.90885C22.5489 6.36806 22.0081 6.03588 21.368 5.78776C20.7482 5.54734 20.0413 5.38348 19.0063 5.33608C17.9693 5.28889 17.6391 5.27734 14.9979 5.27734H15.0009ZM14.1287 7.02937C14.3876 7.02896 14.6764 7.02937 15.0009 7.02937C17.5968 7.02937 17.9044 7.03869 18.9295 7.08527C19.8775 7.12862 20.3919 7.28701 20.7346 7.42008C21.1884 7.5963 21.5118 7.80694 21.8519 8.14722C22.1922 8.4875 22.4028 8.81157 22.5795 9.26528C22.7125 9.60758 22.8711 10.122 22.9143 11.07C22.9609 12.0949 22.971 12.4027 22.971 14.9973C22.971 17.592 22.9609 17.8998 22.9143 18.9247C22.8709 19.8726 22.7125 20.3871 22.5795 20.7294C22.4032 21.1831 22.1922 21.5062 21.8519 21.8462C21.5116 22.1865 21.1886 22.3972 20.7346 22.5734C20.3923 22.7071 19.8775 22.865 18.9295 22.9084C17.9046 22.955 17.5968 22.9651 15.0009 22.9651C12.4048 22.9651 12.0972 22.955 11.0723 22.9084C10.1244 22.8646 9.60988 22.7063 9.26696 22.5732C8.81325 22.397 8.48918 22.1863 8.1489 21.846C7.80861 21.5058 7.59796 21.1825 7.42134 20.7286C7.28827 20.3863 7.12967 19.8718 7.08653 18.9239C7.03994 17.899 7.03063 17.5911 7.03063 14.9949C7.03063 12.3987 7.03994 12.0924 7.08653 11.0675C7.12987 10.1196 7.28827 9.60515 7.42134 9.26244C7.59756 8.80874 7.80861 8.48466 8.1489 8.14439C8.48918 7.80411 8.81325 7.59346 9.26696 7.41684C9.60967 7.28316 10.1244 7.12517 11.0723 7.08163C11.9692 7.04112 12.3167 7.02896 14.1287 7.02694V7.02937ZM20.1906 8.64366C19.5465 8.64366 19.0239 9.16563 19.0239 9.80992C19.0239 10.454 19.5465 10.9766 20.1906 10.9766C20.8347 10.9766 21.3573 10.454 21.3573 9.80992C21.3573 9.16583 20.8347 8.64326 20.1906 8.64326V8.64366ZM15.0009 10.0068C12.2436 10.0068 10.0081 12.2423 10.0081 14.9996C10.0081 17.7568 12.2436 19.9913 15.0009 19.9913C17.7582 19.9913 19.9929 17.7568 19.9929 14.9996C19.9929 12.2423 17.758 10.0068 15.0007 10.0068H15.0009ZM15.0009 11.7588C16.7906 11.7588 18.2417 13.2097 18.2417 14.9996C18.2417 16.7893 16.7906 18.2403 15.0009 18.2403C13.211 18.2403 11.7601 16.7893 11.7601 14.9996C11.7601 13.2097 13.211 11.7588 15.0009 11.7588Z" fill="white"/>
</svg>
