<svg width="19" height="20" viewBox="0 0 19 20" fill="none" xmlns="http://www.w3.org/2000/svg">
<path d="M9.48098 13.3292C8.85551 13.3292 8.24408 13.1339 7.72401 12.768C7.20395 12.4021 6.79861 11.882 6.55925 11.2735C6.3199 10.665 6.25727 9.99548 6.37929 9.34952C6.50132 8.70357 6.80251 8.11022 7.24479 7.64451C7.68706 7.1788 8.25056 6.86165 8.86402 6.73316C9.47747 6.60467 10.1133 6.67062 10.6912 6.92266C11.2691 7.1747 11.763 7.60151 12.1105 8.14913C12.458 8.69674 12.6434 9.34056 12.6434 9.99918C12.6434 10.4365 12.5616 10.8695 12.4027 11.2735C12.2438 11.6775 12.0108 12.0446 11.7172 12.3538C11.4235 12.6631 11.0749 12.9083 10.6912 13.0757C10.3075 13.243 9.89628 13.3292 9.48098 13.3292Z" fill="#F2F2F2"/>
<path fill-rule="evenodd" clip-rule="evenodd" d="M18.4999 3.45C18.7707 4.2294 18.9183 5.05029 18.9367 5.88C18.9937 6.94 18.9937 7.28 18.9937 10C18.9937 11.6746 18.9721 12.4471 18.9555 13.0409C18.9451 13.4116 18.9367 13.7126 18.9367 14.12C18.9183 14.9497 18.7707 15.7706 18.4999 16.55C18.2609 17.2182 17.8847 17.8226 17.3982 18.32C16.928 18.8326 16.3532 19.2258 15.7173 19.47C14.9791 19.7638 14.1986 19.9228 13.4096 19.94C12.4029 20 12.08 20 9.49685 20C6.91371 20 6.59081 20 5.58415 19.94C4.7951 19.9228 4.01465 19.7638 3.27642 19.47C2.64172 19.2234 2.0674 18.8304 1.59547 18.32C1.10869 17.8248 0.735223 17.2196 0.503332 16.55C0.224277 15.7727 0.0733248 14.9508 0.0569806 14.12C0 13.06 0 12.72 0 10C0 7.28 0 6.94 0.0569806 5.88C0.0733248 5.04915 0.224277 4.22734 0.503332 3.45C0.735223 2.78044 1.10869 2.17518 1.59547 1.68C2.0674 1.16956 2.64172 0.776648 3.27642 0.529999C4.01465 0.23616 4.7951 0.0772104 5.58415 0.0600004C6.59081 0 6.91371 0 9.49685 0C12.08 0 12.4029 0 13.4096 0.0600004C14.1986 0.0772104 14.9791 0.23616 15.7173 0.529999C16.3532 0.774176 16.928 1.16743 17.3982 1.68C17.8826 2.17928 18.2584 2.78313 18.4999 3.45ZM14.5539 3.45898C14.3285 3.45898 14.1082 3.52936 13.9208 3.66122C13.7334 3.79308 13.5873 3.98049 13.5011 4.19976C13.4148 4.41903 13.3922 4.66031 13.4362 4.89309C13.4802 5.12587 13.5887 5.33969 13.7481 5.50751C13.9075 5.67533 14.1105 5.78962 14.3316 5.83592C14.5527 5.88223 14.7818 5.85846 14.99 5.76764C15.1983 5.67681 15.3763 5.52301 15.5015 5.32567C15.6267 5.12833 15.6936 4.89632 15.6936 4.65898C15.6936 4.34072 15.5735 4.0355 15.3598 3.81045C15.146 3.58541 14.8562 3.45898 14.5539 3.45898ZM9.48098 4.86918C8.51782 4.87115 7.57682 5.1737 6.7769 5.7386C5.97697 6.30349 5.35401 7.10537 4.98672 8.04293C4.61943 8.98049 4.52431 10.0116 4.71336 11.0061C4.90242 12.0006 5.36717 12.9137 6.04889 13.6302C6.73061 14.3466 7.59871 14.8342 8.54351 15.0313C9.4883 15.2285 10.4674 15.1263 11.3571 14.7377C12.2467 14.3491 13.007 13.6916 13.542 12.8482C14.0769 12.0048 14.3624 11.0134 14.3624 9.99918C14.3636 9.32428 14.2381 8.65578 13.9932 8.03213C13.7482 7.40848 13.3885 6.84199 12.9349 6.36523C12.4812 5.88847 11.9425 5.51086 11.3498 5.25411C10.757 4.99736 10.1219 4.86654 9.48098 4.86918Z" fill="#F2F2F2"/>
</svg>
