<svg width="65" height="64" viewBox="0 0 65 64" fill="none" xmlns="http://www.w3.org/2000/svg">
<path d="M12.693 38.4403L15.4637 32.5656C15.8194 31.8115 16.8469 31.8115 17.2026 32.5656L19.9733 38.4403L26.1694 39.3883C26.9644 39.5099 27.2812 40.5325 26.7057 41.1195L22.223 45.6891L23.281 52.1448C23.4168 52.9739 22.5853 53.6059 21.874 53.2144L16.3332 50.1648L10.7923 53.2144C10.081 53.6059 9.24951 52.9739 9.38538 52.1448L10.4433 45.6891L5.96064 41.1195C5.38509 40.5325 5.70194 39.5099 6.49693 39.3883L12.693 38.4403Z" stroke="#0F172A" stroke-width="2" stroke-linecap="round" stroke-linejoin="round"/>
<path d="M44.6931 38.4403L47.464 32.5656C47.8195 31.8115 48.8472 31.8115 49.2027 32.5656L51.9736 38.4403L58.1696 39.3883C58.9646 39.5099 59.2814 40.5325 58.7059 41.1195L54.2232 45.6891L55.2811 52.1448C55.4171 52.9739 54.5856 53.6059 53.8742 53.2144L48.3334 50.1648L42.7926 53.2144C42.0811 53.6059 41.2496 52.9739 41.3856 52.1448L42.4435 45.6891L37.9608 41.1195C37.3854 40.5325 37.7022 39.5099 38.4971 39.3883L44.6931 38.4403Z" stroke="#0F172A" stroke-width="2" stroke-linecap="round" stroke-linejoin="round"/>
<path d="M28.6929 14.4404L31.4638 8.56562C31.8193 7.81146 32.847 7.81146 33.2025 8.56562L35.9734 14.4404L42.1694 15.3883C42.9644 15.5099 43.2812 16.5326 42.7057 17.1194L38.223 21.689L39.2809 28.1448C39.4169 28.9739 38.5854 29.6059 37.874 29.2144L32.3332 26.1647L26.7923 29.2144C26.081 29.6059 25.2495 28.9739 25.3854 28.1448L26.4433 21.689L21.9606 17.1194C21.3851 16.5326 21.7019 15.5099 22.4969 15.3883L28.6929 14.4404Z" stroke="#0F172A" stroke-width="2" stroke-linecap="round" stroke-linejoin="round"/>
</svg>
