<svg width="18" height="18" viewBox="0 0 18 18" fill="none" xmlns="http://www.w3.org/2000/svg">
<path d="M0.875 4.625C0.875 11.5286 6.47144 17.125 13.375 17.125H15.25C16.2855 17.125 17.125 16.2855 17.125 15.25V14.107C17.125 13.6768 16.8322 13.3018 16.4149 13.1975L12.7289 12.276C12.363 12.1845 11.9778 12.3212 11.7515 12.623L10.943 13.701C10.7083 14.0139 10.3025 14.1522 9.93529 14.0177C7.17949 13.0082 4.9918 10.8205 3.9823 8.06472C3.84778 7.69749 3.98613 7.29165 4.299 7.057L5.37702 6.24849C5.67878 6.02217 5.81551 5.63704 5.72403 5.27111L4.80253 1.58512C4.69819 1.16778 4.32321 0.875 3.89302 0.875H2.75C1.71447 0.875 0.875 1.71447 0.875 2.75V4.625Z" stroke="#333333" stroke-width="1.25" stroke-linecap="round" stroke-linejoin="round"/>
</svg>
