<svg width="16" height="17" viewBox="0 0 16 17" fill="none" xmlns="http://www.w3.org/2000/svg">
<path fill-rule="evenodd" clip-rule="evenodd" d="M0 2.16797C0 1.33954 0.671573 0.667969 1.5 0.667969H2.64837C3.35142 0.667969 3.96014 1.15627 4.11265 1.84257L4.82887 5.06554C5.00105 5.84035 4.53984 6.61517 3.77667 6.83322L2.84388 7.09973C2.4331 7.21709 2.20107 7.65462 2.36396 8.04956C3.53001 10.8767 5.79126 13.138 8.61841 14.304C9.01335 14.4669 9.45087 14.2349 9.56824 13.8241L9.83475 12.8913C10.0528 12.1281 10.8276 11.6669 11.6024 11.8391L14.8254 12.5553C15.5117 12.7078 16 13.3165 16 14.0196V15.168C16 15.9964 15.3284 16.668 14.5 16.668H13C11.8514 16.668 10.7366 16.5188 9.67424 16.2385C5.16665 15.0489 1.61908 11.5013 0.429492 6.99373C0.149131 5.93138 0 4.81652 0 3.66797V2.16797Z" fill="#0F172A"/>
</svg>
