<svg width="24" height="24" viewBox="0 0 24 24" fill="none" xmlns="http://www.w3.org/2000/svg">
<path d="M12.8998 5.70078C12.8998 5.20372 12.4969 4.80078 11.9998 4.80078C11.5027 4.80078 11.0998 5.20372 11.0998 5.70078V11.1008H5.6998C5.20275 11.1008 4.7998 11.5037 4.7998 12.0008C4.7998 12.4978 5.20275 12.9008 5.6998 12.9008L11.0998 12.9008V18.3008C11.0998 18.7978 11.5027 19.2008 11.9998 19.2008C12.4969 19.2008 12.8998 18.7978 12.8998 18.3008V12.9008H18.2998C18.7969 12.9008 19.1998 12.4978 19.1998 12.0008C19.1998 11.5037 18.7969 11.1008 18.2998 11.1008H12.8998V5.70078Z" fill="#333333"/>
</svg>
