<svg width="34" height="29" viewBox="0 0 34 29" fill="none" xmlns="http://www.w3.org/2000/svg">
<path d="M10.6927 28.4196C23.5234 28.4196 30.5402 17.7859 30.5402 8.56473C30.5402 8.26273 30.534 7.96212 30.5204 7.66276C31.8857 6.67449 33.064 5.45085 34 4.04922C32.7501 4.60511 31.4051 4.97925 29.9941 5.14793C31.4343 4.28404 32.5399 2.91734 33.0616 1.28824C31.6923 2.10085 30.1942 2.6737 28.6321 2.98209C27.3591 1.62569 25.5469 0.777344 23.5402 0.777344C19.688 0.777344 16.5641 3.90244 16.5641 7.7546C16.5641 8.30226 16.6254 8.83479 16.7451 9.34576C10.9475 9.05392 5.80661 6.27712 2.36604 2.05483C1.74636 3.11978 1.42042 4.33011 1.4215 5.56222C1.4215 7.98327 2.65297 10.1205 4.52573 11.3709C3.41797 11.3371 2.33452 11.0377 1.3665 10.4981C1.36546 10.5274 1.36546 10.5559 1.36546 10.5872C1.36546 13.9667 3.76992 16.7884 6.96178 17.4277C6.3623 17.5911 5.74371 17.6736 5.12239 17.6733C4.67369 17.6733 4.23639 17.6291 3.81139 17.5475C4.69946 20.3202 7.27462 22.3378 10.3278 22.3942C7.94024 24.2662 4.93269 25.3812 1.66393 25.3812C1.10787 25.3817 0.552263 25.3494 0 25.2846C3.08723 27.2641 6.75266 28.4196 10.6927 28.4196Z" fill="#102E1A"/>
</svg>
