<svg width="20" height="16" viewBox="0 0 20 16" fill="none" xmlns="http://www.w3.org/2000/svg">
<path d="M20 1.89517C19.2477 2.21825 18.452 2.43298 17.6375 2.53275C18.4959 2.0313 19.1376 1.23727 19.4412 0.301111C18.6376 0.770306 17.7585 1.10076 16.8418 1.27818C16.2797 0.686801 15.5498 0.275629 14.7471 0.0981206C13.9443 -0.0793879 13.106 -0.0150213 12.3409 0.282851C11.5758 0.580724 10.9195 1.09832 10.4572 1.76835C9.99495 2.43838 9.74811 3.22984 9.7488 4.03983C9.74565 4.34892 9.77753 4.65739 9.84384 4.95952C8.21268 4.88078 6.61677 4.464 5.16043 3.7364C3.70409 3.00881 2.42012 1.98679 1.39245 0.737161C0.864844 1.62518 0.701343 2.67797 0.935321 3.68064C1.1693 4.68331 1.78312 5.56026 2.65149 6.13252C2.00274 6.11526 1.3677 5.94472 0.799894 5.63529V5.67927C0.800962 6.61148 1.1282 7.51487 1.72653 8.23737C2.32485 8.95987 3.15773 9.45737 4.08496 9.64611C3.73418 9.73715 3.37266 9.78186 3.00991 9.77907C2.74943 9.7836 2.48922 9.76047 2.23377 9.71009C2.49877 10.5113 3.00949 11.2119 3.69562 11.7155C4.38176 12.2191 5.20957 12.5009 6.0651 12.5221C4.61377 13.6396 2.82387 14.2458 0.981439 14.2439C0.653423 14.2461 0.325605 14.2275 0 14.1884C1.87484 15.3778 4.05953 16.007 6.2899 15.9999C13.8348 15.9999 17.96 9.84665 17.96 4.51287C17.96 4.33433 17.9537 4.16219 17.9449 3.99105C18.7537 3.42123 19.4501 2.71098 20 1.89517Z" fill="#F2F2F2"/>
</svg>
